# xmcd
#
# Track frame offsets: 
#        150
#        14784
#        24986
#        37923
#        54146
#        63568
#        77540
#        90207
#        106880
#        118553
#        132027
#
# Disc length: 1905 seconds
#
# Revision: 1
# Processed by: cddbd v1.5.2PL0 Copyright (c) Steve Scherf et al.
# Submitted via: ExactAudioCopy v1.0b3
#
DISCID=77076f0b
DTITLE=Ray Price - Sweetheart Of The Year
DYEAR=1969
DGENRE=Country
TTITLE0=Sweetheart Of The Year
TTITLE1=Make Me Wonderful In Her Eyes
TTITLE2=Each Time
TTITLE3=Margie's At Lincoln Park Inn
TTITLE4=Terrible, Tangled Web
TTITLE5=Woman Without Love
TTITLE6=On The South Side Of Chicago
TTITLE7=You Gave Me A Mountain
TTITLE8=I Wanna Be Around
TTITLE9=Pride Goes Before A Fall
TTITLE10=Somewhere
EXTD=
EXTT0=
EXTT1=
EXTT2=
EXTT3=
EXTT4=
EXTT5=
EXTT6=
EXTT7=
EXTT8=
EXTT9=
EXTT10=
PLAYORDER=
